<?xml version="1.0" standalone="no"?>
<!DOCTYPE svg PUBLIC "-//W3C//DTD SVG 20010904//EN"
 "http://www.w3.org/TR/2001/REC-SVG-20010904/DTD/svg10.dtd">
<svg version="1.0" xmlns="http://www.w3.org/2000/svg"
 width="300.000000pt" height="263.000000pt" viewBox="0 0 300.000000 263.000000"
 preserveAspectRatio="xMidYMid meet">
<metadata>
Created by potrace 1.10, written by Peter Selinger 2001-2011
</metadata>
<g transform="translate(0.000000,263.000000) scale(0.100000,-0.100000)"
fill="#000000" stroke="none">
<path d="M1564 2450 c-108 -16 -185 -52 -254 -116 -27 -25 -53 -58 -60 -74
-11 -26 -14 -28 -38 -19 -42 17 -153 13 -210 -5 -72 -24 -151 -99 -185 -174
-31 -69 -44 -141 -29 -168 9 -18 5 -19 -62 -20 -83 0 -155 -31 -201 -86 -118
-139 -67 -303 111 -358 93 -28 236 -44 309 -34 49 8 70 5 125 -13 97 -32 147
-38 147 -19 0 9 -2 14 -4 12 -6 -6 -143 31 -166 44 -10 6 -22 8 -27 5 -6 -4
-10 -1 -10 6 0 7 -4 8 -12 2 -7 -5 -31 -11 -53 -12 -60 -3 -257 19 -272 30 -7
6 -16 8 -21 5 -6 -3 -15 1 -22 9 -14 17 -35 21 -24 4 9 -15 -50 16 -65 35 -7
8 -9 21 -5 27 5 8 3 9 -5 5 -8 -5 -14 0 -18 13 -3 11 -9 19 -13 16 -4 -3 -10
5 -13 16 -4 15 -2 19 9 15 16 -6 20 19 4 29 -13 8 -13 65 0 85 7 11 9 5 5 -20
-5 -35 -5 -35 5 -5 5 17 8 36 5 43 -2 6 2 12 10 12 8 0 15 6 15 13 0 14 53 57
70 57 6 0 8 4 5 10 -4 6 1 7 11 3 13 -5 15 -3 9 7 -5 8 -4 11 3 6 5 -3 12 0
15 6 4 10 7 10 17 1 11 -10 4 -16 -32 -32 -59 -25 -101 -79 -92 -117 5 -18 3
-25 -4 -20 -25 15 12 -60 42 -86 47 -42 51 -33 6 12 -37 37 -40 44 -34 78 15
82 56 119 169 148 l50 13 -45 -4 c-25 -2 -39 -2 -32 1 6 3 9 10 6 15 -3 6 14
8 45 5 58 -5 62 0 64 84 0 28 7 56 14 62 17 13 17 31 1 23 -7 -4 -6 -1 3 7 9
7 14 19 11 26 -2 7 0 12 5 11 19 -3 27 2 15 10 -11 6 -8 13 10 33 13 13 17 17
11 8 -7 -9 -13 -21 -13 -26 0 -8 35 37 35 46 1 14 17 30 26 25 5 -4 12 1 15 9
3 9 10 13 15 10 5 -3 9 0 9 6 0 6 4 9 9 6 5 -4 11 -1 13 6 6 17 91 23 208 14
32 -2 41 4 107 75 40 42 83 79 95 82 13 3 50 15 83 27 33 12 79 21 103 21 32
-1 41 2 36 11 -4 7 2 5 13 -4 11 -10 28 -18 39 -17 18 0 18 1 -1 9 -13 6 -5 7
25 3 25 -3 50 -10 56 -14 6 -5 15 -5 19 -1 5 4 5 1 1 -6 -5 -9 -1 -15 13 -19
11 -3 18 -10 14 -16 -3 -5 -1 -7 4 -4 13 8 65 -31 58 -43 -3 -5 1 -12 8 -17
14 -8 37 -45 37 -59 0 -4 -7 1 -16 12 -15 17 -15 17 0 -8 9 -15 18 -47 20 -70
3 -24 6 -44 7 -45 6 -9 4 -30 -4 -40 -5 -7 -5 -18 -1 -24 4 -8 3 -9 -4 -5 -7
4 -12 1 -12 -7 0 -15 26 -41 50 -50 16 -6 -38 -12 -82 -9 -16 1 -28 -3 -28
-10 0 -6 -3 -8 -6 -5 -4 3 -16 0 -28 -8 -34 -24 -35 -18 -5 43 29 58 54 192
36 192 -5 0 -7 11 -5 25 4 18 -5 34 -36 67 -22 24 -39 47 -38 51 1 5 -2 6 -7
3 -5 -4 -17 2 -27 11 -15 15 -36 18 -130 18 -106 0 -116 -2 -170 -30 -83 -43
-201 -171 -179 -193 3 -3 8 4 12 16 3 12 9 20 13 17 5 -3 11 3 15 14 11 37
109 117 170 141 81 30 194 31 250 2 83 -42 117 -100 117 -197 0 -98 -45 -191
-122 -246 -41 -30 -89 -78 -90 -90 0 -3 20 13 44 36 100 93 249 134 366 101
35 -9 64 -15 67 -13 5 6 -62 37 -80 37 -8 0 -20 7 -27 15 -11 13 -7 19 11 17
3 -1 25 -2 48 -3 30 -2 40 -7 36 -16 -3 -10 0 -11 12 -4 12 6 26 5 43 -4 14
-7 38 -19 54 -26 28 -14 28 -14 -43 -26 -122 -20 -222 -78 -271 -158 -19 -32
-23 -33 -51 -23 -51 18 -161 5 -212 -25 -94 -55 -157 -157 -157 -254 0 -42 -1
-43 -33 -43 -143 0 -273 -127 -253 -249 9 -56 49 -106 110 -136 70 -34 216
-58 311 -50 51 5 82 2 115 -10 121 -43 433 -67 595 -46 50 7 137 13 195 14 92
2 112 5 165 30 82 38 150 112 171 185 42 143 -19 292 -146 357 -54 27 -143 46
-184 38 -26 -5 -28 -4 -20 18 15 40 9 142 -10 192 -24 64 -101 132 -174 153
-31 9 -74 30 -96 45 -52 38 -136 62 -214 62 -34 0 -65 4 -69 10 -3 6 -1 7 5 3
8 -4 16 3 22 19 27 72 -7 220 -67 286 -69 76 -194 117 -309 99z m323 -476 c-3
-3 -12 -4 -19 -1 -8 3 -5 6 6 6 11 1 17 -2 13 -5z m370 -67 c12 -3 30 -10 41
-16 11 -6 23 -7 27 -3 5 4 5 2 2 -4 -4 -6 4 -16 18 -22 85 -39 134 -175 101
-278 -5 -15 -2 -23 9 -28 25 -9 7 -28 -23 -25 -15 2 -42 -5 -61 -14 -41 -20
-44 -21 -35 -4 4 6 -6 -1 -23 -18 -16 -16 -49 -45 -72 -64 -23 -18 -40 -35
-37 -38 2 -3 17 7 33 21 63 60 198 103 278 90 83 -13 147 -63 185 -144 21 -44
21 -44 16 -10 -6 31 -66 137 -66 116 0 -5 -8 -2 -17 6 -10 9 -40 26 -67 39
-28 13 -43 25 -36 27 8 3 16 -1 18 -8 3 -8 7 -9 11 -2 5 8 19 8 49 0 23 -6 39
-14 36 -19 -3 -5 2 -6 10 -3 10 4 16 1 16 -7 0 -7 3 -10 6 -6 3 3 11 2 18 -4
6 -5 23 -18 37 -29 40 -30 78 -116 80 -180 2 -77 0 -92 -10 -86 -4 3 -6 -5 -4
-18 3 -12 -1 -29 -9 -37 -7 -8 -19 -26 -27 -41 -8 -15 -17 -25 -21 -23 -9 6
-40 -32 -32 -40 4 -4 2 -5 -3 -4 -6 2 -35 -8 -65 -22 -30 -14 -75 -27 -98 -27
-24 -1 -47 -4 -52 -7 -4 -2 -37 -1 -73 3 -36 5 -64 5 -61 1 8 -14 -149 -22
-322 -15 -170 6 -239 17 -369 61 -28 9 -46 10 -59 3 -31 -17 -192 -2 -273 25
-60 19 -109 51 -120 77 -1 3 -8 20 -16 38 -15 36 -11 96 6 85 6 -4 7 -1 3 6
-5 7 0 21 11 33 10 11 17 23 16 27 -1 3 8 11 20 18 12 6 22 15 22 20 0 4 6 7
13 5 8 -2 11 1 7 7 -3 6 -3 12 2 12 4 1 24 3 43 5 30 2 32 2 12 -7 -13 -5 -29
-6 -34 -2 -6 3 -8 1 -4 -5 3 -6 -2 -13 -12 -16 -10 -4 -31 -20 -47 -36 -25
-26 -27 -33 -18 -62 l11 -33 1 31 c2 58 55 101 150 123 l42 9 24 -51 c26 -58
31 -40 11 37 -9 35 -10 63 -4 95 5 25 10 56 10 68 0 12 7 24 14 27 8 3 14 10
14 16 0 6 -6 8 -12 5 -7 -4 -5 0 5 8 9 8 17 20 17 26 0 7 5 9 12 5 8 -5 9 -2
5 9 -3 9 -2 16 2 14 5 -1 22 10 38 24 29 26 62 43 76 41 4 -1 7 1 7 5 0 5 12
9 28 9 22 1 19 -2 -22 -21 -61 -29 -116 -83 -147 -143 -20 -40 -24 -59 -22
-128 2 -45 7 -92 11 -105 6 -16 8 1 4 52 -8 127 31 224 114 282 47 33 102 48
150 40 30 -5 34 -9 34 -38 0 -49 28 -120 58 -146 25 -22 25 -22 8 -2 -10 13
-20 40 -22 60 -2 21 -6 52 -9 70 -15 88 124 220 263 251 23 6 42 7 42 4 0 -3
6 0 13 7 11 12 41 11 94 -2z m-407 -183 c0 -1 -7 -15 -15 -30 -13 -26 -15 -27
-15 -7 0 18 -7 23 -37 28 -69 11 -69 13 -1 11 38 0 68 -2 68 -2z m-390 -324
c0 -18 -3 -19 -20 -8 -18 12 -19 13 -2 20 9 3 18 7 20 7 1 1 2 -8 2 -19z"/>
<path d="M2090 1878 c-93 -23 -182 -91 -219 -169 -28 -57 -21 -59 14 -4 80
127 228 190 360 154 111 -31 167 -177 111 -289 -22 -46 -13 -49 13 -4 29 49
32 153 6 207 -43 90 -164 134 -285 105z"/>
<path d="M2615 1201 l-40 -46 37 30 c32 26 54 55 46 60 -2 1 -21 -19 -43 -44z"/>
<path d="M2150 1200 c4 -22 11 -44 15 -48 4 -4 4 4 0 18 l-8 24 29 -18 29 -19
-30 34 c-16 19 -33 38 -36 42 -4 5 -3 -10 1 -33z"/>
<path d="M1240 1212 c0 -15 31 -52 45 -52 6 0 6 3 -1 8 -5 4 -18 18 -27 32 -9
13 -17 19 -17 12z"/>
<path d="M1480 1182 c0 -18 30 -62 44 -62 8 0 8 2 0 8 -6 4 -18 21 -27 37 -9
17 -16 24 -17 17z"/>
<path d="M1300 1152 c0 -7 1 -12 3 -12 1 0 17 -4 35 -9 20 -6 32 -6 32 0 0 5
-10 9 -23 9 -13 0 -28 5 -35 12 -9 9 -12 9 -12 0z"/>
<path d="M2234 1145 c22 -17 40 -20 32 -6 -3 5 -16 11 -28 14 -22 6 -22 5 -4
-8z"/>
<path d="M1448 1133 c6 -2 18 -2 25 0 6 3 1 5 -13 5 -14 0 -19 -2 -12 -5z"/>
<path d="M2318 1118 c6 -6 18 -8 28 -6 14 3 12 5 -9 10 -19 3 -25 2 -19 -4z"/>
<path d="M2420 1111 c0 -4 11 -6 25 -3 14 2 25 6 25 8 0 2 -11 4 -25 4 -14 0
-25 -4 -25 -9z"/>
<path d="M1678 1073 c6 -2 18 -2 25 0 6 3 1 5 -13 5 -14 0 -19 -2 -12 -5z"/>
<path d="M1740 1060 c8 -5 22 -10 30 -10 13 0 13 1 0 10 -8 5 -22 10 -30 10
-13 0 -13 -1 0 -10z"/>
<path d="M1808 1053 c6 -2 18 -2 25 0 6 3 1 5 -13 5 -14 0 -19 -2 -12 -5z"/>
<path d="M1888 1043 c7 -3 16 -2 19 1 4 3 -2 6 -13 5 -11 0 -14 -3 -6 -6z"/>
<path d="M1079 2206 c-2 -3 -16 -7 -30 -9 -25 -5 -111 -47 -96 -47 4 0 -7 -13
-26 -29 -18 -16 -46 -56 -63 -88 -26 -53 -29 -66 -26 -145 4 -124 17 -146 18
-30 0 75 5 110 22 152 46 117 134 180 249 180 l63 0 0 -49 c0 -28 4 -52 10
-56 5 -3 7 -11 5 -18 -3 -7 6 -30 20 -52 13 -22 25 -36 25 -31 0 5 -10 25 -22
45 -19 30 -19 34 -4 21 18 -14 18 -13 12 8 -14 42 -16 90 -6 116 5 14 5 28 1
31 -5 2 -12 -7 -16 -23 -7 -26 -8 -26 -15 -6 -6 14 -20 23 -47 27 -45 8 -68 9
-74 3z"/>
<path d="M2015 1990 c11 -5 27 -9 35 -9 9 0 8 4 -5 9 -11 5 -27 9 -35 9 -9 0
-8 -4 5 -9z"/>
<path d="M793 1832 c-9 -6 -6 -21 12 -57 26 -56 30 -52 12 17 -9 31 -17 44
-24 40z"/>
<path d="M820 1602 c0 -12 9 -31 20 -42 11 -11 20 -19 20 -17 0 1 -9 20 -20
42 -15 30 -20 34 -20 17z"/>
<path d="M648 1553 c7 -3 16 -2 19 1 4 3 -2 6 -13 5 -11 0 -14 -3 -6 -6z"/>
<path d="M688 1543 c6 -2 18 -2 25 0 6 3 1 5 -13 5 -14 0 -19 -2 -12 -5z"/>
<path d="M730 1541 c0 -5 9 -7 20 -4 11 3 20 7 20 9 0 2 -9 4 -20 4 -11 0 -20
-4 -20 -9z"/>
<path d="M900 1530 c8 -5 20 -10 25 -10 6 0 3 5 -5 10 -8 5 -19 10 -25 10 -5
0 -3 -5 5 -10z"/>
<path d="M880 1510 c11 -11 23 -20 27 -20 3 0 -2 9 -12 20 -10 11 -22 20 -27
20 -4 0 1 -9 12 -20z"/>
<path d="M945 1510 c3 -5 8 -10 11 -10 2 0 4 5 4 10 0 6 -5 10 -11 10 -5 0 -7
-4 -4 -10z"/>
<path d="M995 1496 c17 -8 32 -12 34 -10 7 6 -2 11 -34 17 l-30 6 30 -13z"/>
<path d="M1048 1483 c7 -3 16 -2 19 1 4 3 -2 6 -13 5 -11 0 -14 -3 -6 -6z"/>
<path d="M1098 1473 c7 -3 16 -2 19 1 4 3 -2 6 -13 5 -11 0 -14 -3 -6 -6z"/>
<path d="M1188 1463 c7 -3 16 -2 19 1 4 3 -2 6 -13 5 -11 0 -14 -3 -6 -6z"/>
<path d="M1258 1453 c12 -2 30 -2 40 0 9 3 -1 5 -23 4 -22 0 -30 -2 -17 -4z"/>
<path d="M279 708 c-79 -75 -103 -116 -89 -152 19 -50 86 -62 119 -20 26 33
44 115 39 182 l-3 53 -66 -63z m61 9 c0 -45 -26 -130 -46 -152 -41 -45 -103
-24 -90 30 6 25 29 34 41 15 21 -33 66 17 71 78 2 20 3 38 3 40 3 9 21 -1 21
-11z m-49 -70 c-12 -30 -38 -36 -48 -11 -3 9 6 27 23 45 26 27 29 28 32 12 2
-11 -2 -31 -7 -46z"/>
<path d="M893 730 c-99 -77 -141 -169 -91 -204 52 -37 107 -7 126 69 11 43 27
175 21 175 -2 0 -27 -18 -56 -40z m37 -20 c0 -47 -24 -125 -46 -147 -28 -28
-69 -30 -84 -3 -8 15 -4 29 24 73 19 29 41 59 50 66 14 12 16 11 16 -7 0 -42
-19 -75 -40 -69 -22 6 -28 -9 -7 -16 26 -8 44 6 60 49 9 25 12 42 7 39 -11 -7
-14 18 -3 28 12 13 23 7 23 -13z"/>
<path d="M2091 726 c-59 -49 -110 -115 -78 -103 9 3 17 3 17 -1 0 -4 10 -13
23 -21 12 -7 19 -11 16 -7 -4 4 4 18 18 32 19 19 24 33 21 55 -3 17 1 34 9 40
33 28 3 -129 -32 -161 -35 -33 -77 -24 -92 20 l-12 35 0 -32 c-1 -42 29 -73
69 -73 58 0 85 52 97 188 3 39 4 72 2 72 -2 0 -28 -20 -58 -44z m-5 -82 c-4
-15 -14 -24 -25 -24 -31 0 -32 27 -3 62 26 31 27 31 30 9 2 -13 1 -34 -2 -47z"/>
<path d="M2658 708 c-94 -88 -115 -148 -65 -183 33 -23 73 -19 96 11 26 33 44
115 39 182 l-3 53 -67 -63z m48 -70 c-18 -70 -45 -101 -84 -96 -36 4 -49 30
-33 62 12 21 16 23 28 10 8 -8 21 -14 28 -14 20 0 45 28 46 53 1 12 2 29 3 37
1 8 5 22 11 30 17 27 18 -14 1 -82z m-35 9 c-12 -30 -38 -36 -48 -11 -3 9 6
27 23 45 26 27 29 28 32 12 2 -11 -2 -31 -7 -46z"/>
<path d="M1502 729 c-57 -42 -112 -119 -112 -157 0 -58 77 -83 118 -39 12 12
26 45 31 72 14 69 21 155 12 155 -4 0 -26 -14 -49 -31z m33 -57 c-4 -33 -15
-73 -26 -90 -30 -51 -100 -55 -107 -6 -4 31 12 48 35 36 44 -24 90 24 76 77
-5 20 14 57 24 47 3 -3 2 -31 -2 -64z m-45 -32 c-12 -22 -40 -24 -47 -4 -2 6
9 26 24 45 l28 33 3 -26 c2 -15 -2 -37 -8 -48z"/>
<path d="M521 455 c-79 -75 -100 -113 -83 -151 15 -31 53 -49 87 -40 37 10 66
78 72 177 3 44 3 79 0 79 -4 0 -38 -29 -76 -65z m62 -12 c-13 -95 -46 -153
-88 -153 -39 0 -64 53 -30 66 8 4 13 10 10 15 -3 4 7 2 22 -6 17 -9 29 -11 31
-5 2 6 9 7 15 3 7 -3 9 -3 5 2 -4 4 -3 14 2 20 6 7 11 25 12 41 1 25 14 54 24
54 1 0 0 -17 -3 -37z m-36 0 c-3 -10 -8 -30 -11 -45 -7 -30 -33 -38 -43 -12
-3 9 6 27 23 45 32 34 37 36 31 12z"/>
<path d="M1119 461 c-60 -55 -99 -110 -99 -140 0 -22 49 -61 75 -61 59 0 100
93 93 210 l-3 52 -66 -61z m55 -23 c-10 -78 -32 -125 -64 -138 -51 -21 -83 8
-62 55 10 22 13 23 38 11 23 -13 28 -12 45 5 12 12 19 33 19 57 0 21 3 42 7
45 16 17 23 4 17 -35z m-42 -30 c-9 -36 -38 -50 -48 -23 -4 10 4 27 22 46 32
33 39 27 26 -23z"/>
<path d="M1792 490 c-7 -110 -50 -200 -97 -200 -39 0 -64 53 -30 66 8 4 13 10
10 15 -3 4 6 2 21 -6 25 -13 29 -12 44 8 22 28 30 61 19 78 -5 8 -2 21 9 34 9
11 -3 4 -28 -16 -56 -45 -97 -96 -105 -131 -5 -21 -1 -33 19 -52 75 -76 154
27 143 186 -2 35 -4 41 -5 18z m-50 -82 c-9 -36 -38 -50 -48 -23 -4 10 4 27
22 46 32 33 39 27 26 -23z"/>
<path d="M2327 467 c-71 -64 -97 -102 -97 -144 0 -54 60 -81 108 -48 30 21 54
109 50 184 l-3 60 -58 -52z m48 -34 c-10 -71 -33 -119 -62 -132 -48 -22 -88
15 -62 57 11 17 15 18 38 6 38 -20 61 5 61 68 0 37 4 48 16 48 14 0 15 -8 9
-47z m-44 -36 c-12 -30 -38 -36 -48 -11 -3 9 6 27 23 45 26 27 29 28 32 12 2
-11 -2 -31 -7 -46z"/>
</g>
</svg>
