<?xml version="1.0" standalone="no"?>
<!DOCTYPE svg PUBLIC "-//W3C//DTD SVG 20010904//EN"
 "http://www.w3.org/TR/2001/REC-SVG-20010904/DTD/svg10.dtd">
<svg version="1.0" xmlns="http://www.w3.org/2000/svg"
 width="300.000000pt" height="212.000000pt" viewBox="0 0 300.000000 212.000000"
 preserveAspectRatio="xMidYMid meet">
<metadata>
Created by potrace 1.10, written by Peter Selinger 2001-2011
</metadata>
<g transform="translate(0.000000,212.000000) scale(0.100000,-0.100000)"
fill="#000000" stroke="none">
<path d="M1471 2039 c-106 -21 -239 -110 -291 -195 l-21 -33 -47 22 c-39 18
-65 22 -152 22 -99 0 -109 -2 -175 -34 -162 -79 -266 -258 -248 -427 5 -39 3
-41 -24 -47 -44 -9 -122 -66 -159 -116 -47 -66 -68 -138 -62 -221 l5 -69 -43
-42 c-58 -57 -87 -126 -87 -210 -1 -55 4 -77 31 -132 37 -74 73 -109 152 -146
l55 -26 346 -3 345 -3 14 -37 c19 -55 63 -115 107 -145 84 -58 68 -57 772 -57
747 0 708 -4 802 89 66 66 89 124 89 220 0 80 -29 150 -86 206 l-38 38 -1 91
c0 78 -4 98 -26 141 -16 30 -29 76 -33 115 -10 94 -61 195 -131 258 -52 48
-55 53 -55 99 0 101 -66 233 -153 304 -102 84 -247 118 -363 84 -17 -5 -26 2
-49 41 -93 158 -294 249 -474 213z m207 -33 c7 -4 21 -9 32 -11 11 -2 33 -13
49 -24 16 -12 33 -21 39 -21 18 0 111 -98 132 -139 11 -23 27 -44 35 -48 18
-6 10 -23 -11 -23 -8 0 -12 5 -9 10 3 6 2 10 -4 10 -6 0 -20 19 -32 43 -20 40
-110 137 -127 137 -5 0 -18 9 -30 20 -12 12 -22 19 -22 16 0 -3 -19 2 -42 11
-26 9 -78 16 -130 17 -87 1 -119 12 -55 18 42 4 160 -7 175 -16z m-243 -15
c-3 -6 -13 -11 -21 -11 -51 0 -211 -132 -229 -190 -8 -25 -12 -25 -69 -1 -25
11 -61 23 -81 27 -19 3 -35 10 -35 15 0 17 33 10 105 -22 48 -22 63 -18 92 19
60 79 157 158 205 167 12 3 23 7 26 10 9 8 15 -3 7 -14z m186 -11 c125 -23
229 -102 286 -215 14 -27 26 -51 27 -52 1 -1 24 5 51 13 34 11 73 14 122 11
133 -10 239 -79 304 -199 31 -57 34 -71 34 -144 l0 -81 43 -33 c49 -38 93 -97
122 -165 27 -62 25 -70 -8 -47 -51 37 -127 55 -200 49 -37 -3 -76 -9 -88 -12
-17 -5 -23 0 -34 25 -20 49 -95 119 -158 148 -46 21 -72 26 -133 27 -69 0 -84
-4 -148 -36 l-70 -37 -43 41 c-67 64 -138 91 -233 91 -45 0 -90 -5 -102 -12
-21 -11 -24 -9 -43 28 -27 53 -90 113 -148 142 -67 33 -216 33 -282 1 -55 -27
-125 -94 -151 -144 l-18 -37 -38 14 c-21 7 -55 13 -77 14 l-39 0 5 83 c4 64
11 95 33 140 35 71 107 140 183 175 49 23 70 27 147 27 81 0 96 -3 152 -32
l62 -31 29 52 c54 95 153 168 262 192 70 16 86 16 151 4z m-631 -148 c0 -5
-22 -10 -49 -11 -27 -1 -68 -8 -90 -16 -23 -8 -41 -11 -41 -7 0 4 -4 2 -8 -3
-4 -6 -19 -16 -35 -24 -60 -31 -143 -134 -168 -206 -17 -53 -29 -66 -24 -27
13 106 143 242 267 280 65 20 148 28 148 14z m1175 -66 c11 -2 31 -9 45 -14
14 -5 28 -9 31 -8 8 1 95 -56 124 -81 65 -57 125 -191 125 -279 0 -39 5 -49
49 -91 91 -88 121 -148 138 -278 3 -27 15 -65 25 -84 10 -18 17 -36 14 -39 -3
-3 -1 -11 5 -18 9 -11 13 -75 10 -163 -1 -15 17 -43 49 -78 108 -118 107 -274
-4 -388 -29 -29 -50 -45 -53 -38 -2 7 12 27 32 44 35 31 73 92 80 129 4 20 8
93 5 100 -1 3 -4 19 -6 35 -3 17 -9 32 -15 33 -5 2 -9 9 -9 15 0 21 -67 86
-95 93 -16 4 -24 12 -21 20 52 137 6 278 -119 361 -67 45 -191 56 -255 23
l-40 -20 -26 51 c-31 63 -86 120 -140 147 -48 24 -133 41 -160 32 -42 -15 -74
-20 -74 -11 0 24 130 34 198 15 15 -4 30 -8 34 -8 4 -1 17 -9 28 -18 11 -10
23 -18 25 -18 14 0 79 -70 96 -103 11 -21 25 -40 32 -42 7 -3 35 1 62 8 58 16
152 2 229 -32 25 -10 47 -17 50 -13 30 29 -67 205 -135 244 -23 14 -26 23 -32
92 -9 120 -41 190 -123 270 -41 40 -142 92 -199 102 -39 8 -55 8 -123 1 -34
-4 -32 7 3 16 20 6 103 2 140 -7z m-1000 -253 c35 -13 68 -36 113 -80 34 -35
62 -70 62 -77 0 -14 36 -32 53 -28 4 1 16 4 27 5 11 2 22 6 26 10 3 3 18 4 33
2 14 -2 48 -7 74 -9 54 -6 137 -49 181 -95 17 -17 34 -31 39 -31 4 0 28 14 53
30 27 19 44 26 44 18 -1 -7 -15 -22 -33 -33 -41 -26 -59 -62 -45 -89 14 -27
19 -145 7 -168 -8 -15 0 -29 46 -77 121 -127 122 -285 1 -406 -78 -77 -86 -79
-413 -79 -303 -1 -305 -2 -274 -71 42 -94 139 -159 234 -157 48 1 50 0 23 -10
-37 -14 -132 6 -146 30 -7 13 -9 14 -10 2 0 -28 -92 76 -124 140 -26 54 -36
66 -61 71 -16 4 -28 8 -25 9 3 2 154 4 337 5 256 1 335 4 347 14 9 8 16 10 16
6 0 -11 70 43 103 79 16 17 33 50 40 73 6 23 13 40 16 38 3 -1 7 21 7 51 1 30
-2 54 -5 54 -4 0 -8 6 -8 13 0 50 -93 162 -126 151 -16 -5 -18 -3 -12 18 4 12
11 28 14 33 11 15 14 157 4 164 -4 3 -19 27 -32 53 -39 78 -131 140 -229 155
-35 5 -129 -13 -149 -29 -18 -14 -27 -5 -57 54 -27 56 -78 118 -96 118 -6 0
-21 7 -33 14 -25 17 -71 27 -141 30 -56 3 -152 -38 -184 -79 -11 -13 -21 -23
-23 -20 -3 2 -19 -25 -37 -59 l-33 -64 -52 20 c-54 20 -77 35 -42 25 73 -19
73 -19 105 25 58 82 134 144 194 159 56 13 140 9 191 -8z m-594 -73 c-2 -39 2
-56 19 -77 l22 -28 -34 -8 c-71 -17 -152 -67 -188 -115 -19 -26 -35 -49 -36
-52 0 -3 -6 -16 -12 -30 -10 -24 -11 -24 -11 -3 -2 55 103 173 168 190 51 13
61 32 61 112 0 41 3 71 7 67 4 -3 6 -29 4 -56z m605 26 c60 -28 115 -89 139
-154 10 -26 19 -48 19 -49 1 -1 29 9 62 22 32 14 75 25 95 25 138 1 264 -113
276 -249 8 -87 -17 -152 -84 -220 -30 -29 -47 -51 -38 -47 30 11 125 78 125
87 0 20 30 7 60 -28 44 -50 62 -97 63 -163 0 -71 -28 -134 -81 -182 -77 -70
-73 -69 -774 -66 -686 3 -654 0 -730 67 -51 45 -79 109 -79 186 -1 38 5 74 15
93 18 35 70 90 106 113 23 15 23 18 12 56 -49 165 66 328 247 350 37 4 61 0
111 -20 35 -15 65 -25 66 -24 0 1 13 29 28 62 15 33 39 73 54 89 71 75 208 99
308 52z m931 -247 c56 -27 118 -98 138 -159 l16 -48 56 25 c47 22 65 25 122
21 82 -6 136 -33 189 -93 101 -115 93 -259 -21 -375 l-52 -53 44 24 c23 13 60
39 81 56 l38 33 41 -46 c50 -57 64 -99 59 -179 -5 -82 -44 -147 -112 -190
l-49 -30 -667 0 -667 0 -48 30 c-48 29 -97 89 -109 130 -6 20 -1 20 272 20
l277 0 55 26 c79 37 115 72 152 146 27 55 32 77 31 132 0 84 -29 153 -87 210
l-43 42 5 72 c3 49 -1 86 -11 116 -15 41 -15 46 1 58 81 64 196 76 289 32z
m-1773 -234 l6 -55 -50 -48 c-27 -26 -58 -65 -69 -87 -11 -22 -20 -34 -21 -27
0 25 39 88 80 126 42 39 42 41 36 93 -3 29 -2 53 3 53 4 0 11 -25 15 -55z
m-131 -250 c-3 -9 -8 -14 -10 -11 -3 3 -2 9 2 15 9 16 15 13 8 -4z m1 -50 c-9
-22 23 -114 53 -153 38 -50 99 -90 149 -98 49 -7 61 -26 14 -22 -16 1 -30 7
-30 12 0 5 -3 7 -6 3 -8 -8 -72 26 -104 55 -30 27 -74 88 -64 88 3 0 2 6 -4
13 -21 25 -27 117 -8 117 3 0 3 -7 0 -15z m801 -262 c17 -6 16 -8 -9 -12 -38
-8 -167 -1 -162 8 6 9 145 12 171 4z m-427 -10 c-21 -2 -57 -2 -80 0 -24 2 -7
4 37 4 44 0 63 -2 43 -4z m2132 -211 c0 -5 -15 -16 -34 -25 -30 -14 -86 -16
-437 -17 -222 0 -400 2 -397 5 3 3 178 7 389 10 386 4 414 5 446 24 22 13 33
14 33 3z m-1066 -33 c-29 -11 -112 -11 -94 1 8 5 37 8 64 8 33 -1 43 -4 30 -9z
m109 4 c-7 -2 -19 -2 -25 0 -7 3 -2 5 12 5 14 0 19 -2 13 -5z"/>
<path d="M1440 1914 l-25 -15 25 7 c28 7 35 12 29 18 -2 2 -15 -2 -29 -10z"/>
<path d="M1348 1865 c-49 -36 -118 -128 -117 -155 0 -8 5 -4 10 9 19 48 82
122 125 147 24 14 44 28 44 30 0 10 -19 1 -62 -31z"/>
<path d="M1845 1734 c14 -26 25 -54 25 -62 0 -9 -23 -37 -51 -63 l-52 -48 -51
24 c-74 33 -124 45 -186 44 l-55 -2 60 -7 c82 -10 142 -27 194 -56 l44 -24 49
46 c67 63 126 87 213 88 39 1 86 -2 105 -6 30 -7 32 -6 15 4 -22 13 -164 17
-208 6 -16 -4 -35 -12 -43 -19 -11 -9 -16 -6 -24 17 -21 60 -43 104 -51 104
-5 0 3 -21 16 -46z"/>
<path d="M1099 1700 c13 -11 27 -20 32 -20 17 0 9 9 -23 24 l-33 16 24 -20z"/>
<path d="M1178 1636 c16 -18 38 -52 48 -74 16 -36 34 -54 34 -37 0 15 -45 93
-68 118 -37 39 -50 34 -14 -7z"/>
<path d="M1435 1621 c-17 -4 -40 -13 -50 -20 -20 -12 -20 -12 0 -6 11 4 35 9
53 12 17 3 32 10 32 14 0 5 -1 9 -2 8 -2 -1 -17 -4 -33 -8z"/>
<path d="M1324 1574 c-18 -14 -18 -14 6 -3 31 14 36 19 24 19 -6 0 -19 -7 -30
-16z"/>
<path d="M1780 1523 c0 -7 9 -18 21 -25 26 -17 91 -104 108 -146 8 -18 15 -31
18 -29 2 2 -5 24 -16 49 -19 46 -130 173 -131 151z"/>
<path d="M984 1427 c-17 -7 -42 -20 -55 -29 -14 -11 -1 -7 34 8 58 26 130 30
182 10 12 -4 10 -1 -5 8 -29 18 -112 20 -156 3z"/>
<path d="M864 1325 c-9 -14 -15 -27 -13 -30 3 -2 12 10 21 26 21 36 15 39 -8
4z"/>
<path d="M1018 1249 c85 -11 152 -34 201 -70 23 -16 43 -29 46 -29 3 0 4 21 4
48 l-2 47 -6 -40 c-6 -37 -7 -38 -18 -20 -7 11 -13 17 -13 12 0 -4 -21 3 -47
17 -55 27 -137 47 -191 45 -26 -1 -19 -4 26 -10z"/>
<path d="M1418 1248 c-41 -11 -128 -89 -128 -115 0 -9 13 2 30 25 41 57 100
86 175 86 80 0 136 -31 188 -104 l17 -25 -14 30 c-42 88 -158 133 -268 103z"/>
<path d="M810 1214 l-25 -25 28 12 c15 7 27 18 27 26 0 17 0 17 -30 -13z"/>
<path d="M745 1201 c3 -6 -18 -39 -49 -72 -59 -66 -106 -150 -106 -192 0 -14
-4 -37 -10 -51 -9 -24 -11 -25 -37 -11 -15 8 -35 15 -45 15 -9 0 -28 14 -42
31 -30 36 -36 24 -6 -13 11 -15 38 -30 64 -37 24 -6 51 -18 60 -26 8 -8 17
-15 19 -15 2 0 7 29 9 65 7 87 47 165 118 236 54 53 56 57 38 68 -12 8 -17 8
-13 2z"/>
<path d="M1290 1102 c0 -5 7 -15 15 -22 8 -7 15 -19 15 -26 0 -8 5 -14 10 -14
6 0 10 -7 10 -15 0 -11 -13 -15 -54 -15 -95 0 -175 -41 -227 -116 -41 -60 -52
-158 -25 -229 10 -25 22 -47 26 -50 5 -3 1 14 -10 37 -40 88 -15 213 56 280
62 57 170 84 238 58 33 -12 32 -7 -4 57 -29 50 -50 74 -50 55z"/>
<path d="M586 793 c13 -76 72 -196 101 -207 8 -3 3 9 -10 27 -39 51 -67 113
-74 162 -3 25 -9 45 -14 45 -4 0 -6 -12 -3 -27z"/>
<path d="M343 562 c42 -47 72 -52 279 -50 l193 2 -190 6 c-208 7 -225 9 -270
42 -29 21 -29 21 -12 0z"/>
<path d="M838 513 c12 -2 32 -2 45 0 12 2 2 4 -23 4 -25 0 -35 -2 -22 -4z"/>
<path d="M1989 1189 c-10 -6 -4 -9 18 -9 17 0 44 -5 60 -11 21 -8 25 -7 17 1
-16 17 -80 29 -95 19z"/>
<path d="M1888 1169 c-21 -11 -38 -22 -38 -24 0 -3 15 2 32 11 18 9 44 20 58
25 20 6 21 7 5 8 -11 0 -37 -9 -57 -20z"/>
<path d="M2189 978 l-4 -47 -47 24 c-72 37 -145 55 -212 54 -61 -2 -61 -2 19
-9 90 -8 151 -29 210 -72 l40 -29 3 31 c2 16 2 45 0 63 -4 27 -5 25 -9 -15z"/>
<path d="M2378 1010 c-20 -4 -43 -12 -50 -17 -7 -6 -17 -12 -23 -12 -21 -2
-95 -83 -95 -104 0 -8 14 -33 30 -55 17 -23 30 -46 30 -51 0 -5 -28 -9 -63 -9
-102 0 -198 -57 -233 -139 -23 -53 -16 -50 19 7 45 76 107 113 197 118 39 3
76 -1 89 -7 11 -7 21 -9 21 -6 0 11 -33 70 -57 102 -28 39 -24 52 36 106 89
80 211 75 299 -12 44 -44 46 -30 3 16 -45 47 -133 75 -203 63z"/>
<path d="M1950 545 c-6 -54 2 -109 21 -147 11 -21 22 -38 24 -38 3 0 -2 15
-12 33 -10 18 -20 65 -24 107 -3 41 -7 62 -9 45z"/>
<path d="M1260 332 c0 -14 33 -40 73 -57 29 -12 85 -15 298 -15 144 0 260 2
257 5 -3 3 -113 5 -246 5 -256 1 -315 9 -360 50 -12 11 -22 17 -22 12z"/>
</g>
</svg>
