<?xml version="1.0" standalone="no"?>
<!DOCTYPE svg PUBLIC "-//W3C//DTD SVG 20010904//EN"
 "http://www.w3.org/TR/2001/REC-SVG-20010904/DTD/svg10.dtd">
<svg version="1.0" xmlns="http://www.w3.org/2000/svg"
 width="300.000000pt" height="300.000000pt" viewBox="0 0 300.000000 300.000000"
 preserveAspectRatio="xMidYMid meet">
<metadata>
Created by potrace 1.10, written by Peter Selinger 2001-2011
</metadata>
<g transform="translate(0.000000,300.000000) scale(0.100000,-0.100000)"
fill="#000000" stroke="none">
<path d="M1397 2758 c-47 -134 -89 -251 -92 -260 -6 -15 -3 -16 27 -8 41 12
280 13 331 1 20 -5 37 -8 37 -7 0 1 -31 87 -68 192 -38 104 -79 219 -91 257
-38 112 -45 103 -144 -175z m118 182 c3 -13 9 -28 15 -34 13 -13 13 -46 1 -46
-5 0 -11 6 -14 13 -2 6 -2 -1 1 -17 2 -16 27 -88 54 -160 28 -72 51 -139 51
-148 1 -10 5 -14 9 -10 7 7 -12 75 -25 88 -4 4 -7 15 -7 23 0 9 -13 52 -30 94
-32 83 -39 120 -19 100 6 -6 12 -23 12 -37 0 -14 3 -26 7 -26 4 0 13 -19 20
-42 7 -24 15 -50 18 -58 3 -8 4 -20 3 -26 0 -6 6 -17 14 -24 8 -7 15 -21 15
-32 0 -10 7 -30 16 -43 15 -23 15 -25 -1 -31 -9 -4 -49 -5 -88 -2 -40 3 -107
2 -150 -1 -85 -7 -90 -3 -65 56 6 15 11 31 10 36 -1 4 3 7 8 7 6 0 10 12 10
26 0 14 7 32 15 40 8 9 15 25 15 37 1 12 7 33 15 47 8 14 14 37 15 53 0 15 5
27 12 27 6 0 8 3 5 6 -3 4 -1 16 5 28 7 11 13 24 14 29 1 4 3 10 4 15 1 4 2
11 1 16 -2 9 21 28 27 22 1 -2 5 -14 7 -26z"/>
<path d="M1471 2861 c-24 -56 -106 -310 -99 -303 10 10 104 259 113 300 8 40
1 42 -14 3z"/>
<path d="M1487 2660 c-10 -46 -8 -58 4 -37 6 9 14 15 20 12 14 -9 11 19 -4 40
-13 17 -14 16 -20 -15z"/>
<path d="M1413 2543 c9 -2 25 -2 35 0 9 3 1 5 -18 5 -19 0 -27 -2 -17 -5z"/>
<path d="M1553 2543 c9 -2 25 -2 35 0 9 3 1 5 -18 5 -19 0 -27 -2 -17 -5z"/>
<path d="M410 2590 c0 -3 23 -52 51 -110 84 -172 189 -401 189 -411 0 -20 18
-7 47 34 41 56 144 159 199 199 24 17 44 34 44 37 0 3 -31 19 -68 36 -37 16
-156 72 -264 125 -109 53 -198 93 -198 90z m121 -73 c14 -4 42 -18 63 -32 20
-14 44 -25 52 -25 9 0 22 -7 31 -15 8 -9 28 -19 44 -22 16 -3 29 -9 29 -14 0
-5 5 -9 11 -9 20 0 139 -61 139 -71 0 -5 -4 -9 -10 -9 -5 0 -18 -8 -28 -17
-10 -10 -41 -39 -68 -64 -66 -62 -114 -116 -114 -129 0 -5 -4 -10 -10 -10 -14
0 -42 59 -34 72 5 7 10 4 15 -10 5 -12 14 -22 21 -22 8 0 9 3 3 8 -6 4 -16 18
-22 32 -6 14 -12 19 -12 12 -1 -18 -21 -4 -21 14 0 9 5 12 11 8 7 -4 10 -3 8
3 -42 104 -96 216 -115 239 l-24 29 13 -30 c7 -16 35 -74 61 -128 37 -74 46
-101 37 -110 -8 -8 -11 -7 -11 4 0 8 -29 73 -65 145 -35 72 -69 143 -74 158
-11 26 -10 26 17 13 15 -8 39 -17 53 -20z"/>
<path d="M530 2484 c0 -3 57 -32 127 -66 165 -77 193 -89 193 -79 0 5 -12 12
-27 16 -15 3 -30 10 -33 14 -6 9 -238 121 -251 121 -5 0 -9 -3 -9 -6z"/>
<path d="M660 2333 c1 -21 27 -41 41 -32 12 8 11 12 -5 24 -22 16 -36 19 -36
8z"/>
<path d="M2332 2471 c-145 -70 -265 -129 -265 -132 -1 -3 25 -27 58 -54 70
-57 134 -123 178 -182 17 -24 33 -43 36 -43 3 0 19 31 36 68 32 73 169 361
204 430 12 23 20 42 19 41 -2 -1 -122 -58 -266 -128z m218 74 c0 -4 -69 -151
-77 -164 -2 -2 -6 -2 -9 1 -3 4 0 17 7 30 13 24 22 58 15 58 -14 0 -151 -298
-142 -308 4 -3 6 0 6 7 0 7 4 9 10 6 5 -3 7 0 4 8 -3 8 2 21 10 30 8 8 18 28
22 43 4 16 10 31 14 34 3 3 14 22 23 43 10 20 22 37 28 37 11 0 10 -2 -28 -63
-13 -21 -21 -42 -18 -47 4 -6 1 -10 -4 -10 -6 0 -11 -7 -11 -16 0 -18 -41 -97
-53 -102 -4 -2 -5 -8 -2 -12 3 -5 1 -11 -4 -14 -5 -3 -24 13 -44 37 -49 60
-122 131 -162 158 -19 13 -35 28 -35 32 0 5 33 23 73 41 39 18 106 50 149 70
42 20 81 36 87 36 6 0 11 4 11 8 0 4 23 16 50 26 28 10 53 22 56 27 5 9 24 13
24 4z"/>
<path d="M2410 2470 c-14 -11 -28 -20 -32 -20 -19 0 -217 -102 -229 -118 -12
-15 -12 -16 1 -6 8 6 80 42 160 78 80 37 149 71 154 76 19 19 -29 10 -54 -10z"/>
<path d="M2302 2326 c-12 -7 -26 -17 -30 -21 -4 -5 -1 -5 6 -1 7 4 15 0 19
-10 5 -14 8 -14 24 7 30 39 24 48 -19 25z"/>
<path d="M2170 2302 c0 -12 19 -26 26 -19 2 2 -2 10 -11 17 -9 8 -15 8 -15 2z"/>
<path d="M2240 2236 c0 -2 8 -10 18 -17 15 -13 16 -12 3 4 -13 16 -21 21 -21
13z"/>
<path d="M2280 2196 c0 -2 8 -10 18 -17 15 -13 16 -12 3 4 -13 16 -21 21 -21
13z"/>
<path d="M1330 2375 c-178 -36 -318 -113 -455 -250 -143 -143 -217 -282 -250
-470 -84 -484 238 -942 725 -1031 220 -40 449 9 640 137 427 286 528 856 225
1268 -105 142 -240 243 -416 311 -123 47 -332 63 -469 35z m281 -15 c170 -19
358 -108 480 -225 111 -106 190 -230 227 -355 13 -41 28 -86 33 -100 10 -22
14 -293 6 -330 -34 -148 -88 -272 -161 -368 -55 -72 -193 -202 -215 -202 -5 0
-11 -3 -13 -7 -4 -10 -146 -82 -173 -88 -11 -2 -40 -12 -65 -22 -65 -25 -369
-25 -454 0 -32 10 -64 21 -70 24 -6 4 -16 8 -21 9 -25 4 -162 73 -174 88 -7 9
-18 16 -23 16 -13 0 -159 147 -189 190 -33 47 -55 87 -80 140 -12 25 -26 53
-30 62 -5 10 -9 25 -9 33 0 9 -6 28 -14 43 -20 38 -32 156 -28 279 2 78 8 121
28 180 14 43 27 85 29 93 5 25 56 123 81 157 13 17 24 34 24 36 0 19 139 158
192 192 51 34 188 105 188 98 0 -3 6 -1 13 4 25 19 104 43 172 52 98 12 147
12 246 1z"/>
<path d="M1345 2334 c-27 -5 -57 -13 -65 -17 -15 -6 -97 -36 -115 -41 -86 -25
-246 -145 -318 -238 -61 -77 -135 -223 -157 -308 -6 -25 -15 -58 -20 -74 -14
-45 -3 -337 14 -364 4 -7 4 -12 -1 -12 -4 0 -3 -4 2 -8 6 -4 19 -32 29 -62 10
-30 32 -76 47 -103 16 -26 29 -52 29 -57 0 -6 4 -10 8 -10 4 0 16 -15 27 -33
26 -45 101 -128 136 -150 16 -11 26 -24 22 -30 -3 -7 -3 -9 1 -5 4 3 31 -8 59
-26 233 -145 515 -173 762 -77 57 22 125 57 125 64 0 4 5 7 10 7 27 0 143 99
213 181 54 64 58 68 55 71 -1 2 12 28 29 58 17 30 46 98 63 150 28 81 33 112
36 215 2 66 -2 145 -7 175 -39 205 -139 377 -308 524 -82 72 -261 151 -390
171 -71 12 -232 11 -286 -1z m390 -44 c273 -87 469 -283 555 -555 35 -109 39
-295 10 -420 -54 -235 -206 -431 -420 -544 -112 -59 -203 -82 -350 -88 -107
-5 -138 -2 -215 16 -178 44 -347 149 -455 284 -59 74 -132 217 -157 307 -25
91 -25 329 0 420 26 93 98 235 154 305 107 131 277 241 443 285 106 28 332 23
435 -10z"/>
<path d="M1325 2233 c-84 -19 -229 -92 -300 -150 -167 -136 -260 -325 -272
-553 -5 -98 -2 -128 16 -200 68 -270 254 -468 516 -550 107 -34 276 -39 385
-11 268 66 469 254 552 516 25 78 35 271 19 357 -58 295 -289 531 -584 593
-85 19 -252 18 -332 -2z m355 -23 c92 -25 84 -22 145 -50 28 -13 52 -27 53
-31 2 -5 10 -9 18 -9 8 0 14 -4 14 -8 0 -4 15 -16 33 -26 27 -16 99 -86 144
-140 42 -50 117 -202 129 -261 26 -128 24 -322 -5 -370 -3 -5 -6 -14 -6 -20
-4 -46 -72 -188 -111 -230 -13 -14 -24 -29 -24 -33 0 -15 -100 -103 -110 -97
-5 3 -10 -1 -10 -10 0 -9 -4 -14 -9 -11 -5 3 -11 0 -14 -8 -3 -8 -18 -20 -34
-29 -15 -8 -48 -26 -73 -39 -25 -14 -58 -28 -75 -33 -16 -4 -34 -10 -40 -11
-127 -43 -389 -31 -472 22 -13 8 -23 11 -23 8 0 -4 -8 0 -17 9 -10 8 -21 16
-26 16 -30 2 -145 82 -198 138 -73 77 -159 221 -159 266 0 12 -7 35 -15 51 -8
15 -15 43 -15 60 0 18 -3 35 -6 39 -10 9 -12 108 -3 162 4 28 10 69 13 93 3
24 8 47 11 53 4 5 8 19 10 31 5 22 35 88 45 98 3 3 16 26 29 53 13 26 28 47
33 47 4 0 8 4 8 9 0 4 23 32 50 61 28 29 50 50 50 47 0 -3 17 10 38 28 20 19
42 35 49 35 6 0 13 3 15 8 4 9 80 46 91 44 4 -1 7 2 7 7 0 5 26 15 58 21 31 7
72 18 91 25 51 18 221 10 311 -15z"/>
<path d="M480 1691 c-8 -5 -107 -41 -220 -80 -267 -94 -260 -91 -260 -110 0
-12 61 -38 243 -102 133 -48 249 -90 259 -93 14 -7 15 -3 7 31 -12 49 -12 277
0 326 9 39 2 45 -29 28z m0 -104 c-5 -42 -6 -116 -2 -163 l8 -86 -30 6 c-37 8
-44 15 -26 26 10 6 4 12 -25 24 -20 9 -41 16 -44 16 -4 0 -36 12 -72 26 -83
35 -185 66 -172 53 11 -11 106 -47 225 -86 43 -14 75 -29 73 -34 -3 -4 -30 1
-60 12 -30 10 -60 19 -67 19 -6 0 -30 8 -52 18 -43 19 -80 34 -158 61 -26 9
-46 21 -45 26 1 6 5 9 9 8 4 -2 32 8 62 22 30 14 63 25 74 25 10 0 22 3 26 7
10 10 48 14 42 4 -3 -5 -27 -14 -52 -20 -46 -12 -100 -41 -76 -41 14 0 151 48
242 85 36 14 73 27 82 28 9 0 15 5 12 9 -3 4 -42 -6 -89 -22 -46 -17 -89 -30
-96 -30 -15 0 -3 13 14 16 7 1 32 10 57 21 39 18 142 52 147 49 1 -1 -3 -36
-7 -79z"/>
<path d="M452 1570 c0 -19 2 -27 5 -17 2 9 2 25 0 35 -3 9 -5 1 -5 -18z"/>
<path d="M326 1511 c-22 -8 -15 -15 26 -25 15 -3 30 -2 33 4 3 6 -1 7 -10 4
-10 -4 -15 -2 -13 6 4 16 -12 21 -36 11z"/>
<path d="M451 1444 c0 -11 3 -14 6 -6 3 7 2 16 -1 19 -3 4 -6 -2 -5 -13z"/>
<path d="M2491 1663 c5 -21 9 -94 9 -163 0 -69 -4 -142 -9 -163 -8 -34 -7 -38
7 -32 10 3 126 45 260 92 186 66 242 90 242 103 0 13 -56 37 -246 104 -135 48
-252 90 -259 92 -11 4 -11 -2 -4 -33z m81 -16 c21 -7 41 -16 44 -20 4 -4 20
-7 35 -7 15 0 31 -4 34 -10 3 -5 17 -10 31 -10 14 0 27 -7 30 -15 4 -8 9 -13
13 -10 8 4 77 -17 87 -28 4 -4 17 -7 30 -7 12 0 24 -4 26 -9 2 -6 16 -12 32
-15 30 -5 42 -13 34 -21 -11 -11 -151 -56 -162 -52 -6 3 -2 8 9 12 11 3 34 13
50 21 l30 14 -35 -6 c-34 -6 -257 -87 -292 -105 -10 -5 -17 -15 -15 -22 1 -7
-7 -12 -18 -12 -16 0 -20 6 -18 30 5 93 4 252 -2 268 -9 21 5 22 57 4z m208
-216 c0 -5 -26 -17 -57 -27 -32 -10 -60 -18 -63 -19 -3 -1 -18 -7 -33 -13 -16
-7 -38 -12 -50 -11 -21 0 -21 1 -2 9 11 5 29 12 40 16 160 59 165 60 165 45z"/>
<path d="M2555 1631 c13 -13 260 -107 305 -115 48 -10 21 9 -45 30 -27 8 -59
19 -70 24 -20 8 -46 17 -55 18 -3 1 -36 13 -75 27 -38 15 -65 22 -60 16z"/>
<path d="M2542 1565 c0 -16 2 -22 5 -12 2 9 2 23 0 30 -3 6 -5 -1 -5 -18z"/>
<path d="M2541 1514 c0 -11 3 -14 6 -6 3 7 2 16 -1 19 -3 4 -6 -2 -5 -13z"/>
<path d="M2634 1506 c23 -18 42 -20 51 -6 3 6 0 10 -7 10 -7 0 -24 3 -38 6
-24 5 -24 5 -6 -10z"/>
<path d="M631 882 c-14 -31 -69 -149 -123 -261 -54 -112 -97 -206 -95 -208 2
-2 91 39 198 90 107 51 224 106 261 122 37 17 68 33 68 36 0 3 -20 20 -45 38
-55 40 -156 141 -198 199 -17 23 -33 42 -36 42 -3 0 -17 -26 -30 -58z m134
-92 c44 -48 115 -110 126 -110 37 0 -20 -34 -176 -105 -64 -30 -215 -101 -259
-123 -5 -3 -2 8 6 24 45 89 78 161 78 172 0 7 5 12 10 12 17 0 9 -28 -25 -80
-5 -8 -11 -24 -12 -35 -4 -35 26 16 83 143 29 64 60 129 68 145 8 15 11 27 7
27 -5 0 -29 -43 -55 -95 -27 -56 -51 -93 -57 -89 -7 4 -6 12 3 22 14 17 65
120 88 177 l12 30 35 -40 c20 -22 51 -56 68 -75z"/>
<path d="M700 821 c0 -6 4 -13 10 -16 6 -3 7 1 4 9 -7 18 -14 21 -14 7z"/>
<path d="M800 716 c0 -2 7 -9 15 -16 13 -11 14 -10 9 4 -5 14 -24 23 -24 12z"/>
<path d="M671 688 c-16 -26 -8 -33 18 -16 24 15 26 24 8 31 -7 3 -19 -4 -26
-15z"/>
<path d="M846 677 c3 -10 9 -15 12 -12 3 3 0 11 -7 18 -10 9 -11 8 -5 -6z"/>
<path d="M698 602 c-70 -31 -139 -67 -155 -79 l-28 -23 30 13 c57 23 300 146
290 146 -5 0 -67 -25 -137 -57z"/>
<path d="M2303 898 c-34 -48 -151 -165 -199 -200 -17 -13 -32 -27 -33 -31 -1
-5 71 -44 161 -86 90 -43 209 -101 266 -129 93 -45 119 -53 93 -26 -6 5 -62
119 -126 254 -64 135 -120 248 -124 253 -4 4 -21 -12 -38 -35z m103 -141 c15
-39 31 -74 35 -77 4 -3 23 -41 43 -85 21 -44 44 -93 53 -108 8 -16 13 -30 11
-32 -5 -5 -211 94 -218 105 -3 4 -18 12 -33 15 -15 4 -27 11 -27 16 0 5 -6 6
-13 3 -7 -2 -30 7 -51 21 -20 14 -40 25 -44 25 -5 0 -19 5 -33 12 -24 11 -22
13 91 128 l115 116 21 -33 c12 -18 34 -66 50 -106z"/>
<path d="M2335 835 c8 -16 44 -91 79 -166 35 -75 69 -139 74 -143 14 -9 -7 43
-69 165 -27 53 -49 101 -49 105 0 5 -11 23 -25 39 l-25 30 15 -30z"/>
<path d="M2274 798 l-29 -33 33 29 c30 28 37 36 29 36 -2 0 -16 -15 -33 -32z"/>
<path d="M2189 713 c-13 -16 -12 -17 4 -4 16 13 21 21 13 21 -2 0 -10 -8 -17
-17z"/>
<path d="M2307 711 c2 -2 -1 -9 -7 -16 -6 -8 0 -17 21 -29 30 -18 31 -18 21 0
-6 11 -16 26 -24 34 -7 8 -12 13 -11 11z"/>
<path d="M2146 668 c7 -12 123 -68 141 -68 6 0 13 -3 15 -7 4 -11 159 -85 165
-79 7 6 -38 30 -190 101 -75 35 -135 59 -131 53z"/>
<path d="M1300 516 c0 0 13 -37 29 -81 15 -44 57 -160 91 -257 48 -134 67
-178 80 -178 13 0 37 58 103 243 47 133 89 249 92 259 6 14 2 15 -32 7 -49
-12 -277 -12 -325 0 -21 5 -38 8 -38 7z m205 -38 c66 0 125 1 130 2 30 7 32
-2 14 -52 -26 -70 -30 -82 -30 -88 -1 -3 -4 -9 -9 -15 -4 -5 -13 -34 -20 -63
-7 -30 -16 -50 -21 -45 -5 5 2 41 15 81 12 40 26 69 29 65 4 -3 7 9 7 27 0 18
-2 31 -4 29 -9 -9 -94 -249 -99 -276 -2 -15 -2 -22 0 -15 3 6 9 12 14 12 5 0
9 9 9 19 0 28 11 52 20 46 9 -6 -19 -96 -33 -106 -5 -3 -8 -9 -8 -13 3 -18 0
-33 -9 -46 -9 -13 -11 -13 -20 0 -5 8 -10 25 -10 38 0 12 -4 22 -8 22 -10 0
-32 60 -32 88 0 11 -4 24 -10 27 -5 3 -10 15 -10 26 0 10 -5 19 -10 19 -6 0
-10 6 -9 13 1 6 -2 23 -8 37 -6 14 -17 45 -24 70 -7 25 -18 53 -25 64 -18 26
-7 48 20 40 11 -4 75 -7 141 -6z"/>
<path d="M1423 453 c9 -2 25 -2 35 0 9 3 1 5 -18 5 -19 0 -27 -2 -17 -5z"/>
<path d="M1558 453 c6 -2 18 -2 25 0 6 3 1 5 -13 5 -14 0 -19 -2 -12 -5z"/>
<path d="M1360 443 c0 -7 4 -14 9 -17 5 -3 14 -27 21 -53 16 -57 14 -51 29
-88 28 -68 49 -134 43 -139 -3 -3 0 -6 6 -6 6 0 12 -6 15 -13 2 -6 2 1 -1 18
-6 37 -100 287 -113 300 -6 5 -9 5 -9 -2z"/>
<path d="M1485 355 c9 -42 21 -51 27 -21 3 14 2 23 -3 20 -4 -2 -13 4 -19 13
-9 15 -10 13 -5 -12z"/>
</g>
</svg>
