<?xml version="1.0" standalone="no"?>
<!DOCTYPE svg PUBLIC "-//W3C//DTD SVG 20010904//EN"
 "http://www.w3.org/TR/2001/REC-SVG-20010904/DTD/svg10.dtd">
<svg version="1.0" xmlns="http://www.w3.org/2000/svg"
 width="360.000000pt" height="360.000000pt" viewBox="0 0 360.000000 360.000000"
 preserveAspectRatio="xMidYMid meet">
<metadata>
Created by potrace 1.16, written by Peter Selinger 2001-2019
</metadata>
<g transform="translate(0.000000,360.000000) scale(0.100000,-0.100000)"
fill="#000000" stroke="none">
<path d="M1726 3444 c-60 -22 -104 -60 -134 -117 l-27 -52 -6 -1060 c-3 -583
-6 -1061 -7 -1062 -1 0 -33 -24 -72 -53 -111 -83 -189 -216 -208 -358 -9 -66
-6 -82 14 -82 15 0 20 17 29 102 13 119 110 263 226 334 l59 37 0 1061 c0
1019 1 1063 19 1103 68 150 266 166 359 29 l32 -48 0 -1078 c0 -1067 0 -1079
20 -1085 37 -12 120 -82 164 -138 121 -155 137 -362 42 -545 -29 -56 -133
-158 -194 -190 -199 -106 -431 -74 -588 83 -34 33 -71 79 -83 103 -19 38 -51
58 -51 32 0 -40 85 -153 153 -205 220 -168 514 -149 707 44 209 210 214 525
11 744 -30 32 -74 70 -99 84 l-45 27 5 1031 c3 568 2 1051 -2 1074 -14 75 -57
132 -129 169 -72 36 -128 41 -195 16z"/>
<path d="M1749 3281 c-24 -19 -24 -20 -29 -297 -5 -276 -1 -318 28 -300 9 5
12 85 12 280 0 198 3 275 12 284 19 19 66 15 78 -7 6 -13 10 -142 10 -350 l0
-331 -75 0 -75 0 0 -815 0 -815 -39 -19 c-78 -40 -141 -146 -141 -236 0 -100
69 -205 162 -245 139 -61 291 -1 356 138 20 44 23 65 20 120 -2 37 -12 84 -22
104 -23 48 -81 107 -122 124 l-32 14 5 1152 6 1153 -27 33 c-22 26 -35 32 -66
32 -22 0 -47 -8 -61 -19z m53 -801 c7 0 9 -261 7 -807 l-4 -806 38 -21 c95
-54 137 -125 137 -233 0 -83 -18 -114 -84 -144 -106 -48 -246 2 -296 106 -57
118 9 283 125 313 36 10 33 -83 34 856 1 678 2 748 17 742 9 -3 20 -6 26 -6z"/>
</g>
</svg>
